<svg height="511pt" viewBox="0 -3 511.99992 511" width="511pt" xmlns="http://www.w3.org/2000/svg"><path d="m130.957031 100.722656-62.507812 25.164063v-96.214844h62.507812zm0 0" fill="#fed89b"/><path d="m107.257812 29.671875v80.589844l23.699219-9.539063v-71.050781zm0 0" fill="#eab875"/><path d="m132.308594 51.34375h-65.207032c-10.554687 0-19.113281-8.558594-19.113281-19.117188v-5.109374c0-10.558594 8.558594-19.117188 19.113281-19.117188h65.207032c10.558594 0 19.117187 8.558594 19.117187 19.117188v5.109374c0 10.558594-8.5625 19.117188-19.117187 19.117188zm0 0" fill="#aa7d95"/><path d="m132.308594 8h-24.421875c10.554687 0 19.113281 8.558594 19.113281 19.117188v5.109374c0 10.558594-8.554688 19.117188-19.113281 19.117188h24.421875c10.554687 0 19.117187-8.558594 19.117187-19.117188v-5.109374c-.003906-10.558594-8.5625-19.117188-19.117187-19.117188zm0 0" fill="#804c68"/><path d="m60.511719 131.261719v287.390625c0 6.824218 5.535156 12.359375 12.359375 12.359375h299.429687c6.824219 0 12.359375-5.535157 12.359375-12.359375v-287.390625l-162.074218-65.480469zm0 0" fill="#f0f2dc"/><path d="m222.585938 65.78125-13.171876 5.320312 148.902344 60.160157v287.390625c0 6.824218-5.53125 12.359375-12.355468 12.359375h26.339843c6.824219 0 12.359375-5.535157 12.359375-12.359375v-287.390625zm0 0" fill="#ccc5a9"/><path d="m179.824219 259.867188h85.523437c6.359375 0 11.511719 5.152343 11.511719 11.507812v159.636719h-108.546875v-159.636719c0-6.355469 5.15625-11.507812 11.511719-11.507812zm0 0" fill="#ea6789"/><path d="m204.246094 259.867188h-24.421875c-6.355469 0-11.511719 5.152343-11.511719 11.507812v159.636719h24.421875v-159.636719c0-6.355469 5.15625-11.507812 11.511719-11.507812zm0 0" fill="#c7416a"/><path d="m436.128906 151.359375c-3.34375 8.347656-11.355468 13.421875-19.828125 13.421875-2.648437 0-5.339843-.5-7.9375-1.535156l-5.554687-2.226563-2.375-.953125-99.167969-39.757812-44.75-17.945313-33.925781-13.59375-32.523438 13.042969-36.777344 14.742188-116.46875 46.691406c-10.957031 4.378906-23.375-.9375-27.777343-11.886719-4.378907-10.9375.941406-23.378906 11.878906-27.757813l132.367187-53.066406 36.777344-14.742187 24.574219-9.851563c5.097656-2.035156 10.796875-2.035156 15.890625 0l169.902344 68.117188 2.375.953125 21.433594 8.59375c10.957031 4.375 16.265624 16.816406 11.886718 27.753906zm0 0" fill="#8fc264"/><path d="m416.851562 256.089844-112.164062 64.753906c-6.953125 4.015625-9.335938 12.90625-5.320312 19.859375l17.078124 29.582031c4.015626 6.953125 12.90625 9.335938 19.859376 5.320313l112.164062-64.757813c6.949219-4.015625 9.332031-12.90625 5.320312-19.859375l-17.078124-29.578125c-4.015626-6.953125-12.90625-9.335937-19.859376-5.320312zm0 0" fill="#56a6e8"/><path d="m453.789062 290.988281-17.078124-29.578125s0 0 0-.003906l7.949218 13.769531c2.507813 4.347657-1.09375 11.125-8.046875 15.136719l-112.164062 64.757812c-6.953125 4.015626-14.621094 3.746094-17.132813-.601562l-7.949218-13.769531 17.078124 29.582031c4.015626 6.953125 12.90625 9.335938 19.859376 5.320312l112.164062-64.757812c6.953125-4.011719 9.332031-12.898438 5.320312-19.855469zm0 0" fill="#2176c7"/><path d="m455.609375 412.339844 37.53125 65.007812-34.976563 20.195313-37.535156-65.007813c-2.183594-3.785156-.890625-8.613281 2.890625-10.796875l21.292969-12.292969c3.785156-2.183593 8.609375-.890624 10.796875 2.894532zm0 0" fill="#f9aa4b"/><path d="m400.429688 114.054688-169.902344-68.109376c-5.089844-2.042968-10.789063-2.042968-15.878906 0l-24.574219 9.855469v135.078125c0 24.191406 19.613281 43.800782 43.800781 43.800782 24.195312 0 43.804688-19.609376 43.804688-43.800782v-22.433594c0-17.003906 13.785156-30.789062 30.789062-30.789062s30.785156 13.785156 30.785156 30.789062v39.886719c0 17.035157 13.8125 30.84375 30.84375 30.84375 17.035156 0 30.84375-13.808593 30.84375-30.84375v-94.070312zm0 0" fill="#56a6e8"/><path d="m284.046875 137.65625c-17.003906 0-30.789063 13.785156-30.789063 30.789062v22.433594c0 19.949219-13.34375 36.777344-31.59375 42.0625 3.878907 1.125 7.972657 1.738282 12.210938 1.738282 24.195312 0 43.804688-19.609376 43.804688-43.800782v-22.433594c0-12.664062 7.648437-23.539062 18.578124-28.265624-3.746093-1.621094-7.871093-2.523438-12.210937-2.523438zm0 0" fill="#2176c7"/><path d="m400.429688 114.054688-23.957032-9.601563.046875 9.808594v94.070312c0 12.695313-7.671875 23.597657-18.632812 28.328125 3.746093 1.617188 7.871093 2.515625 12.210937 2.515625 17.035156 0 30.84375-13.808593 30.84375-30.84375v-94.070312zm0 0" fill="#2176c7"/><path d="m195.246094 341.5h-5.175782c-4.140624 0-7.5 3.355469-7.5 7.5 0 4.140625 3.359376 7.5 7.5 7.5h5.175782c4.140625 0 7.5-3.359375 7.5-7.5 0-4.144531-3.359375-7.5-7.5-7.5zm0 0"/><path d="m508.964844 291.691406-15.191406-26.316406c-6.171876-10.691406-19.890626-14.367188-30.582032-8.195312l-15.195312 8.777343-4.789063-8.296875c-2.945312-5.097656-7.695312-8.746094-13.382812-10.269531s-11.625-.742187-16.722657 2.203125l-20.945312 12.09375v-22.007812c9.84375-6.949219 16.285156-18.410157 16.285156-31.347657v-37.152343c2.570313.730468 5.203125 1.097656 7.863282 1.097656 11.835937 0 22.351562-7.109375 26.789062-18.128906 5.914062-14.769532-1.292969-31.601563-16.0625-37.515626l-45.914062-18.398437c-.042969-.019531-.085938-.035156-.128907-.050781l-35.273437-14.140625c-3.84375-1.539063-8.210938.324219-9.75 4.171875-1.542969 3.84375.324218 8.207031 4.167968 9.75l53.308594 21.371094v89c0 12.871093-10.472656 23.339843-23.34375 23.339843s-23.34375-10.472656-23.34375-23.339843v-39.890626c0-21.109374-17.175781-38.285156-38.285156-38.285156-21.113281 0-38.289062 17.175782-38.289062 38.285156v22.433594c0 20.019532-16.285157 36.304688-36.304688 36.304688-20.015625 0-36.300781-16.285156-36.300781-36.304688v-88.988281c0-.054687 0-.109375 0-.164063v-40.851562l1.507812-.605469 18.359375-7.359375c3.320313-1.332031 6.976563-1.332031 10.296875 0l23.117188 9.269532c.082031.03125.160156.0625.238281.089843l58.046875 23.269531c3.84375 1.539063 8.210937-.324218 9.753906-4.171874 1.539063-3.84375-.324219-8.207032-4.171875-9.75l-81.40625-32.632813c-6.917968-2.773437-14.539062-2.773437-21.460937 0l-19.277344 7.734375-54.121094 21.6875v-10.28125c11.722657-2.78125 20.464844-13.339844 20.464844-25.898438v-5.109374c0-14.675782-11.9375-26.617188-26.613281-26.617188h-65.207032c-14.675781 0-26.613281 11.9375-26.613281 26.617188v5.109374c0 12.5625 8.746094 23.117188 20.464844 25.898438v41.347656l-42.816406 17.160156c-7.152344 2.867188-12.761719 8.351563-15.796875 15.4375-3.03125 7.089844-3.121094 14.933594-.25 22.082032 4.515625 11.257812 15.382812 18.121094 26.84375 18.121094 3.5625 0 7.179687-.664063 10.683594-2.0625l13.398437-5.375v253.820312c0 10.949219 8.90625 19.859375 19.859375 19.859375h299.421875c10.949219 0 19.859375-8.910156 19.859375-19.859375v-33.734375c0-4.144531-3.359375-7.5-7.5-7.5-4.144531 0-7.5 3.355469-7.5 7.5v33.734375c0 2.679688-2.179688 4.859375-4.859375 4.859375h-87.9375v-152.140625c0-10.480469-8.527344-19.007812-19.011719-19.007812h-85.523437c-10.480469 0-19.011719 8.527343-19.011719 19.007812v152.140625h-87.9375c-2.679688 0-4.859375-2.179687-4.859375-4.859375v-259.832031l88.0625-35.308594 26.496094-10.617187v77.980468c0 28.289063 23.015625 51.300782 51.300781 51.300782 28.289062 0 51.304688-23.011719 51.304688-51.300782v-22.433594c0-12.839843 10.445312-23.289062 23.289062-23.289062 12.839844 0 23.289062 10.449219 23.289062 23.289062v39.886719c0 21.144531 17.199219 38.34375 38.339844 38.34375 2.414063 0 4.769532-.226562 7.058594-.652343v24.324218l-76.21875 44.003906c-5.097656 2.941407-8.742188 7.695313-10.265625 13.378907-1.523437 5.6875-.742187 11.625 2.199219 16.722656l17.082031 29.582031c2.941406 5.097656 7.691406 8.742188 13.378906 10.265625 1.898438.511719 3.824219.761719 5.738281.761719 3.820313 0 7.585938-1 10.980469-2.960938l112.167969-64.757812c10.519531-6.074219 14.140625-19.578125 8.0625-30.101562l-4.789062-8.296876 15.195312-8.773437c3.523438-2.035156 8.058594-.824219 10.09375 2.703125l15.195312 26.316406c1.742188 3.019532 1.164063 6.777344-1.402343 9.136719l-71.371094 65.5c-8.394531 7.703125-10.277344 19.976563-4.582031 29.84375l5.300781 9.175781-4.152344 2.398438c-7.351562 4.246094-9.882812 13.683594-5.636719 21.039062l37.535157 65.011719c1.390625 2.402344 3.910156 3.75 6.5 3.75 1.273437 0 2.5625-.324219 3.742187-1.007813 3.585938-2.070312 4.816406-6.65625 2.746094-10.242187l-37.53125-65.011719c-.113281-.195312-.050781-.4375.144531-.550781l21.292969-12.292969c.195312-.113281.4375-.046875.550781.148438l37.535157 65.011718c2.070312 3.585938 6.65625 4.816407 10.242187 2.742188 3.585937-2.070312 4.816406-6.65625 2.746094-10.242188l-37.535157-65.011718c-4.246093-7.355469-13.6875-9.882813-21.039062-5.636719l-4.152344 2.394531-5.296875-9.175781c-2.15625-3.734375-1.445312-8.378906 1.730469-11.292969l71.371094-65.5c7.789062-7.148437 9.535156-18.535156 4.25-27.6875zm-79.789063-143.132812c-2.132812 5.296875-7.1875 8.722656-12.871093 8.722656-1.75 0-3.496094-.339844-5.144532-.988281l-2.71875-1.09375v-29.859375l13.011719 5.214844c7.097656 2.839843 10.558594 10.925781 7.722656 18.003906zm-253.363281 122.816406c0-2.210938 1.800781-4.011719 4.011719-4.011719h85.523437c2.214844 0 4.011719 1.800781 4.011719 4.011719v152.136719h-93.546875zm-120.328125-239.148438v-5.109374c0-6.40625 5.214844-11.617188 11.617187-11.617188h65.207032c6.40625 0 11.617187 5.210938 11.617187 11.617188v5.109374c0 6.40625-5.210937 11.617188-11.617187 11.617188h-1.09375c-.085938-.003906-.167969-.003906-.257813-.003906-.085937 0-.171875 0-.257812.003906h-61.988281c-.085938-.003906-.171876-.003906-.257813-.003906s-.171875 0-.257813.003906h-1.09375c-6.40625 0-11.617187-5.210938-11.617187-11.617188zm20.46875 26.617188h47.507813v15.574219l-47.507813 19.042969zm74.542969 50.75-92.570313 37.117188c-.132812.046874-.257812.097656-.386719.152343l-23.496093 9.421875c-7.097657 2.835938-15.1875-.625-18.035157-7.71875-1.375-3.429687-1.332031-7.195312.125-10.597656 1.457032-3.40625 4.148438-6.039062 7.585938-7.414062l47.402344-19c.085937-.035157.175781-.070313.261718-.105469l111.191407-44.566407v29.855469zm297.5 190.488281c-.484375 1.8125-1.648438 3.332031-3.277344 4.273438l-112.164062 64.753906c-1.628907.941406-3.523438 1.191406-5.339844.703125-1.816406-.484375-3.332032-1.648438-4.273438-3.277344l-17.078125-29.582031c-.941406-1.625-1.191406-3.523437-.703125-5.339844.484375-1.816406 1.648438-3.332031 3.277344-4.273437l79.757812-46.046875c.136719-.070313.273438-.152344.40625-.234375l32-18.476563c1.085938-.625 2.289063-.945312 3.507813-.945312.613281 0 1.226563.082031 1.832031.242187 1.816406.488282 3.335938 1.652344 4.273438 3.28125l17.078125 29.582032c.941406 1.625 1.191406 3.523437.703125 5.339843zm0 0"/></svg>